<svg width="800" height="240" viewBox="0 0 800 240" xmlns="http://www.w3.org/2000/svg">
  <defs>
    <linearGradient id="bgGrad6" x1="0" y1="0" x2="1" y2="1">
      <stop offset="0%" stop-color="#F0F9FF"/>
      <stop offset="100%" stop-color="#E0F2FE"/>
    </linearGradient>
    <linearGradient id="barGrad2" x1="0" y1="0" x2="0" y2="1">
      <stop offset="0%" stop-color="#38BDF8"/>
      <stop offset="100%" stop-color="#0EA5E9"/>
    </linearGradient>
  </defs>

  <rect width="800" height="240" rx="20" fill="url(#bgGrad6)"/>

  <!-- panel -->
  <rect x="60" y="40" width="680" height="160" rx="12" fill="#FFFFFF" stroke="#BAE6FD" stroke-width="2"/>

  <!-- axis -->
  <line x1="100" y1="170" x2="760" y2="170" stroke="#BAE6FD" stroke-width="2"/>
  <line x1="100" y1="60" x2="100" y2="170" stroke="#BAE6FD" stroke-width="2"/>

  <!-- bars -->
  <g>
    <rect x="130" y="120" width="26" height="50" rx="4" fill="url(#barGrad2)" opacity="0.85"/>
    <rect x="180" y="100" width="26" height="70" rx="4" fill="url(#barGrad2)" opacity="0.85"/>
    <rect x="230" y="132" width="26" height="38" rx="4" fill="url(#barGrad2)" opacity="0.85"/>
    <rect x="280" y="86" width="26" height="84" rx="4" fill="url(#barGrad2)" opacity="0.85"/>
    <rect x="330" y="110" width="26" height="60" rx="4" fill="url(#barGrad2)" opacity="0.85"/>
    <rect x="380" y="70" width="26" height="100" rx="4" fill="url(#barGrad2)" opacity="0.85"/>
    <rect x="430" y="96" width="26" height="74" rx="4" fill="url(#barGrad2)" opacity="0.85"/>
    <rect x="480" y="60" width="26" height="110" rx="4" fill="url(#barGrad2)" opacity="0.85"/>
    <rect x="530" y="106" width="26" height="64" rx="4" fill="url(#barGrad2)" opacity="0.85"/>
    <rect x="580" y="80" width="26" height="90" rx="4" fill="url(#barGrad2)" opacity="0.85"/>
    <rect x="630" y="50" width="26" height="120" rx="4" fill="url(#barGrad2)" opacity="0.85"/>
    <rect x="680" y="92" width="26" height="78" rx="4" fill="url(#barGrad2)" opacity="0.85"/>
  </g>

  <!-- trend line -->
  <polyline points="143,118 193,98 243,130 293,84 343,108 393,68 443,94 493,58 543,104 593,78 643,48 693,90"
            fill="none" stroke="#0F172A" stroke-width="3" stroke-linecap="round" stroke-linejoin="round" opacity="0.85"/>
  <g fill="#0F172A">
    <circle cx="143" cy="118" r="4"/>
    <circle cx="293" cy="84" r="4"/>
    <circle cx="443" cy="94" r="4"/>
    <circle cx="643" cy="48" r="4"/>
  </g>

  <!-- small contribution grid decoration top-right of panel -->
  <g>
    <rect x="600" y="206" width="10" height="10" rx="2" fill="#BAE6FD"/>
    <rect x="614" y="206" width="10" height="10" rx="2" fill="#7DD3FC"/>
    <rect x="628" y="206" width="10" height="10" rx="2" fill="#38BDF8"/>
    <rect x="642" y="206" width="10" height="10" rx="2" fill="#0EA5E9"/>
    <rect x="656" y="206" width="10" height="10" rx="2" fill="#0284C7"/>
    <rect x="670" y="206" width="10" height="10" rx="2" fill="#7DD3FC"/>
    <rect x="684" y="206" width="10" height="10" rx="2" fill="#BAE6FD"/>
  </g>
  <text x="60" y="214" font-family="Fira Code, monospace" font-size="12" fill="#0284C7">commit activity, mapped 📈</text>

  <!-- floating accents -->
  <circle cx="90" cy="55" r="4" fill="#0EA5E9" opacity="0.5"/>
  <circle cx="730" cy="55" r="5" fill="#38BDF8" opacity="0.5"/>
</svg>
