<svg width="800" height="260" viewBox="0 0 800 260" xmlns="http://www.w3.org/2000/svg">
  <defs>
    <linearGradient id="bgGrad2" x1="0" y1="0" x2="1" y2="1">
      <stop offset="0%" stop-color="#F0F9FF"/>
      <stop offset="100%" stop-color="#E0F2FE"/>
    </linearGradient>
    <linearGradient id="barGrad" x1="0" y1="0" x2="0" y2="1">
      <stop offset="0%" stop-color="#38BDF8"/>
      <stop offset="100%" stop-color="#0EA5E9"/>
    </linearGradient>
  </defs>

  <rect width="800" height="260" rx="20" fill="url(#bgGrad2)"/>

  <!-- browser window -->
  <rect x="90" y="34" width="620" height="196" rx="14" fill="#FFFFFF" stroke="#BAE6FD" stroke-width="2"/>
  <!-- top bar -->
  <rect x="90" y="34" width="620" height="34" rx="14" fill="#0F172A"/>
  <rect x="90" y="54" width="620" height="14" fill="#0F172A"/>
  <circle cx="112" cy="51" r="5" fill="#F87171"/>
  <circle cx="130" cy="51" r="5" fill="#FBBF24"/>
  <circle cx="148" cy="51" r="5" fill="#34D399"/>
  <rect x="320" y="44" width="260" height="14" rx="7" fill="#1E293B"/>
  <text x="335" y="55" font-family="Fira Code, monospace" font-size="10" fill="#7DD3FC">checkout-consent-for-woocommerce</text>

  <!-- sidebar -->
  <rect x="106" y="84" width="110" height="130" rx="8" fill="#F0F9FF"/>
  <rect x="118" y="98" width="86" height="9" rx="4" fill="#0284C7" opacity="0.8"/>
  <rect x="118" y="118" width="70" height="7" rx="3" fill="#7DD3FC"/>
  <rect x="118" y="134" width="76" height="7" rx="3" fill="#7DD3FC"/>
  <rect x="118" y="150" width="60" height="7" rx="3" fill="#7DD3FC"/>
  <rect x="118" y="166" width="72" height="7" rx="3" fill="#7DD3FC"/>
  <rect x="118" y="182" width="50" height="7" rx="3" fill="#7DD3FC"/>

  <!-- dashboard cards -->
  <g>
    <rect x="232" y="84" width="135" height="60" rx="8" fill="#F0F9FF" stroke="#BAE6FD"/>
    <rect x="244" y="96" width="50" height="7" rx="3" fill="#0284C7"/>
    <rect x="244" y="110" width="80" height="16" rx="4" fill="url(#barGrad)" opacity="0.25"/>
    <path d="M 244 124 l 14 -10 l 12 6 l 18 -14 l 16 8" stroke="#0EA5E9" stroke-width="3" fill="none" stroke-linecap="round" stroke-linejoin="round"/>
  </g>
  <g>
    <rect x="380" y="84" width="135" height="60" rx="8" fill="#F0F9FF" stroke="#BAE6FD"/>
    <rect x="392" y="96" width="60" height="7" rx="3" fill="#0284C7"/>
    <rect x="392" y="112" width="14" height="24" rx="2" fill="url(#barGrad)"/>
    <rect x="412" y="104" width="14" height="32" rx="2" fill="url(#barGrad)"/>
    <rect x="432" y="118" width="14" height="18" rx="2" fill="url(#barGrad)"/>
    <rect x="452" y="98" width="14" height="38" rx="2" fill="url(#barGrad)"/>
  </g>
  <g>
    <rect x="528" y="84" width="160" height="60" rx="8" fill="#0F172A"/>
    <rect x="540" y="96" width="70" height="7" rx="3" fill="#7DD3FC"/>
    <circle cx="660" cy="114" r="18" fill="none" stroke="#1E293B" stroke-width="7"/>
    <circle cx="660" cy="114" r="18" fill="none" stroke="#38BDF8" stroke-width="7" stroke-dasharray="75 113" stroke-linecap="round" transform="rotate(-90 660 114)"/>
    <text x="540" y="132" font-family="Fira Code, monospace" font-size="9" fill="#94A3B8">HPOS ready</text>
  </g>

  <!-- toggle / settings row -->
  <rect x="232" y="156" width="456" height="44" rx="8" fill="#F0F9FF" stroke="#BAE6FD"/>
  <rect x="246" y="170" width="120" height="8" rx="4" fill="#0284C7" opacity="0.7"/>
  <rect x="246" y="184" width="80" height="6" rx="3" fill="#7DD3FC"/>
  <rect x="630" y="168" width="44" height="20" rx="10" fill="#0EA5E9"/>
  <circle cx="660" cy="178" r="8" fill="#FFFFFF"/>

  <!-- floating accents -->
  <circle cx="60" cy="60" r="6" fill="#38BDF8" opacity="0.5"/>
  <circle cx="740" cy="200" r="7" fill="#0EA5E9" opacity="0.4"/>
  <circle cx="60" cy="200" r="4" fill="#0284C7" opacity="0.5"/>
</svg>
